<svg id="Layer_1" xmlns="http://www.w3.org/2000/svg" viewBox="0 0 247 233.4"><style>.st0{fill:#3c6bb4}.st1{font-family:&amp;apos;ArialNarrow-Bold&amp;apos;}.st2{font-size:60.5962px}.st3{letter-spacing:-.9}.st4{letter-spacing:-10.3}.st5{font-family:&amp;apos;ArialMT&amp;apos;}.st6{letter-spacing:-11.2}</style><path class="st0" d="M217.9 130.9l-2.2 8c-12.7 45.6-59.1 74.3-105 62.9-44.1-10.9-71.5-53.7-64.9-97.2l13.3 3.7c3.1.9 5.9-1.9 5.1-5L49.7 47.1c-.8-3.1-4.6-4.2-6.9-1.9L1.2 85.8C-1 88 0 91.9 3 92.7l14.5 4c-10.8 58.9 25.5 117.6 84.8 133 61.5 16 124.3-22.1 141.4-83.3l2.1-7.7c.6-2.2-.7-4.5-2.9-5.1l-20-5.6c-2.1-.6-4.4.7-5 2.9zM241.5 95.9l-21 2.7c-2.3.3-3.9 2.4-3.6 4.7l.8 6.4c.3 2.3 2.4 3.9 4.7 3.6l21-2.7c2.3-.3 3.9-2.4 3.6-4.7l-.8-6.4c-.4-2.3-2.4-3.9-4.7-3.6zM225.3 56.2l-18.4 10.4c-2 1.1-2.7 3.7-1.6 5.7l3.1 5.6c1.1 2 3.7 2.7 5.7 1.6L232.6 69c2-1.1 2.7-3.7 1.6-5.7l-3.1-5.6c-1.2-1.9-3.8-2.6-5.8-1.5zM195.5 25.5L182.3 42c-1.4 1.8-1.1 4.4.7 5.8l5 4c1.8 1.4 4.4 1.1 5.8-.7L207 34.7c1.4-1.8 1.1-4.4-.7-5.8l-5-4c-1.7-1.5-4.3-1.2-5.8.6zM156.4 8.2l-6 20.3c-.7 2.2.6 4.5 2.8 5.2l6.1 1.8c2.2.7 4.5-.6 5.2-2.8l6-20.3c.7-2.2-.6-4.5-2.8-5.2l-6.1-1.8c-2.3-.6-4.6.6-5.2 2.8zM113.6 6.9l2 21.1c.2 2.3 2.2 4 4.5 3.7l6.4-.6c2.3-.2 4-2.2 3.7-4.5l-2-21.1c-.2-2.3-2.2-4-4.5-3.7l-6.4.6c-2.2.1-3.9 2.2-3.7 4.5zM73.4 21.6l9.7 18.8c1.1 2 3.6 2.8 5.6 1.8l5.7-3c2-1.1 2.8-3.6 1.8-5.6l-9.7-18.8c-1.1-2-3.6-2.8-5.6-1.8l-5.7 3c-2 1.1-2.8 3.6-1.8 5.6z"/><text transform="matrix(1.1599 0 0 1 71.844 148.237)"><tspan x="0" y="0" class="st0 st1 st2 st3">24</tspan><tspan x="52.8" y="0" class="st0 st1 st2 st4"> </tspan><tspan x="58.7" y="0" class="st0 st5 st2 st3">/</tspan><tspan x="74.3" y="0" class="st0 st1 st2 st6"> </tspan><tspan x="78.9" y="0" class="st0 st1 st2 st3">7</tspan></text></svg>