<?xml version="1.0" encoding="utf-8"?>
<!-- Generator: Adobe Illustrator 19.2.0, SVG Export Plug-In . SVG Version: 6.00 Build 0)  -->
<svg version="1.1" id="Layer_1" xmlns="http://www.w3.org/2000/svg" xmlns:xlink="http://www.w3.org/1999/xlink" x="0px" y="0px"
	 viewBox="0 0 247 233.4" style="enable-background:new 0 0 247 233.4;" xml:space="preserve">
<style type="text/css">
	.st0{fill:#3C6BB4;}
	.st1{font-family:'ArialNarrow-Bold';}
	.st2{font-size:60.5962px;}
	.st3{letter-spacing:-0.9;}
	.st4{letter-spacing:-10.3;}
	.st5{font-family:'ArialMT';}
	.st6{letter-spacing:-11.2;}
</style>
<path class="st0" d="M217.9,130.9l-2.2,8c-12.7,45.6-59.1,74.3-105,62.9c-44.1-10.9-71.5-53.7-64.9-97.2l13.3,3.7
	c3.1,0.9,5.9-1.9,5.1-5L49.7,47.1c-0.8-3.1-4.6-4.2-6.9-1.9L1.2,85.8C-1,88,0,91.9,3,92.7l14.5,4C6.7,155.6,43,214.3,102.3,229.7
	c61.5,16,124.3-22.1,141.4-83.3l2.1-7.7c0.6-2.2-0.7-4.5-2.9-5.1l-20-5.6C220.8,127.4,218.5,128.7,217.9,130.9L217.9,130.9z"/>
<path class="st0" d="M241.5,95.9l-21,2.7c-2.3,0.3-3.9,2.4-3.6,4.7l0.8,6.4c0.3,2.3,2.4,3.9,4.7,3.6l21-2.7c2.3-0.3,3.9-2.4,3.6-4.7
	l-0.8-6.4C245.8,97.2,243.8,95.6,241.5,95.9L241.5,95.9z"/>
<path class="st0" d="M225.3,56.2l-18.4,10.4c-2,1.1-2.7,3.7-1.6,5.7l3.1,5.6c1.1,2,3.7,2.7,5.7,1.6L232.6,69c2-1.1,2.7-3.7,1.6-5.7
	l-3.1-5.6C229.9,55.8,227.3,55.1,225.3,56.2L225.3,56.2z"/>
<path class="st0" d="M195.5,25.5L182.3,42c-1.4,1.8-1.1,4.4,0.7,5.8l5,4c1.8,1.4,4.4,1.1,5.8-0.7L207,34.7c1.4-1.8,1.1-4.4-0.7-5.8
	l-5-4C199.6,23.4,197,23.7,195.5,25.5L195.5,25.5z"/>
<path class="st0" d="M156.4,8.2l-6,20.3c-0.7,2.2,0.6,4.5,2.8,5.2l6.1,1.8c2.2,0.7,4.5-0.6,5.2-2.8l6-20.3c0.7-2.2-0.6-4.5-2.8-5.2
	l-6.1-1.8C159.3,4.8,157,6,156.4,8.2L156.4,8.2z"/>
<path class="st0" d="M113.6,6.9l2,21.1c0.2,2.3,2.2,4,4.5,3.7l6.4-0.6c2.3-0.2,4-2.2,3.7-4.5l-2-21.1c-0.2-2.3-2.2-4-4.5-3.7
	l-6.4,0.6C115.1,2.5,113.4,4.6,113.6,6.9L113.6,6.9z"/>
<path class="st0" d="M73.4,21.6l9.7,18.8c1.1,2,3.6,2.8,5.6,1.8l5.7-3c2-1.1,2.8-3.6,1.8-5.6l-9.7-18.8c-1.1-2-3.6-2.8-5.6-1.8
	l-5.7,3C73.2,17.1,72.4,19.6,73.4,21.6L73.4,21.6z"/>
<path class="st0" d="M73.4,21.6"/>
<g>
	<text transform="matrix(1.1599 0 0 1 71.8442 148.2373)"><tspan x="0" y="0" class="st0 st1 st2 st3">24</tspan><tspan x="52.8" y="0" class="st0 st1 st2 st4">  </tspan><tspan x="58.7" y="0" class="st0 st5 st2 st3">/</tspan><tspan x="74.3" y="0" class="st0 st1 st2 st6">  </tspan><tspan x="78.9" y="0" class="st0 st1 st2 st3">7</tspan></text>
</g>
</svg>
